<svg class="animated" id="freepik_stories-real-time-sync" xmlns="http://www.w3.org/2000/svg" xmlns:xlink="http://www.w3.org/1999/xlink" viewBox="0 0 500 500" version="1.1" xmlns:svgjs="http://svgjs.com/svgjs"><style>svg#freepik_stories-real-time-sync:not(.animated) .animable {opacity: 0;}svg#freepik_stories-real-time-sync.animated #freepik--background-simple--inject-91 {animation: 1s 1 forwards cubic-bezier(.36,-0.01,.5,1.38) slideDown;animation-delay: 0s;}svg#freepik_stories-real-time-sync.animated #freepik--Ground--inject-91 {animation: 1s 1 forwards cubic-bezier(.36,-0.01,.5,1.38) slideUp;animation-delay: 0s;}svg#freepik_stories-real-time-sync.animated #freepik--Plants--inject-91 {animation: 1s 1 forwards cubic-bezier(.36,-0.01,.5,1.38) zoomIn;animation-delay: 0s;}svg#freepik_stories-real-time-sync.animated #freepik--Device--inject-91 {animation: 1s 1 forwards cubic-bezier(.36,-0.01,.5,1.38) zoomOut;animation-delay: 0s;}svg#freepik_stories-real-time-sync.animated #freepik--Character--inject-91 {animation: 1s 1 forwards cubic-bezier(.36,-0.01,.5,1.38) lightSpeedLeft;animation-delay: 0s;}            @keyframes slideDown {                0% {                    opacity: 0;                    transform: translateY(-30px);                }                100% {                    opacity: 1;                    transform: translateY(0);                }            }                    @keyframes slideUp {                0% {                    opacity: 0;                    transform: translateY(30px);                }                100% {                    opacity: 1;                    transform: inherit;                }            }                    @keyframes zoomIn {                0% {                    opacity: 0;                    transform: scale(0.5);                }                100% {                    opacity: 1;                    transform: scale(1);                }            }                    @keyframes zoomOut {                0% {                    opacity: 0;                    transform: scale(1.5);                }                100% {                    opacity: 1;                    transform: scale(1);                }            }                    @keyframes lightSpeedLeft {              from {                transform: translate3d(-50%, 0, 0) skewX(20deg);                opacity: 0;              }              60% {                transform: skewX(-10deg);                opacity: 1;              }              80% {                transform: skewX(2deg);              }              to {                opacity: 1;                transform: translate3d(0, 0, 0);              }            }        </style><g id="freepik--background-simple--inject-91" class="animable" style="transform-origin: 247.731px 218.733px;"><path d="M412.62,175.16C389.66,130.87,352.9,88.5,312,72c-57-23-113,15-129,40s-46,58.3-84,77.15c-63.28,31.4-51.86,125.74,6.08,157.41C136.43,363.71,176.15,366.94,211,370c148,13,194-26,216-54,17.57-22.36,12.49-59.74,6.66-85.24C429.62,213.11,422.36,194,412.62,175.16Z" style="fill: #00346F; transform-origin: 247.731px 218.733px;" id="el1gm2gyx1ovt" class="animable"></path><g id="el4r496p8ob35"><path d="M412.62,175.16C389.66,130.87,352.9,88.5,312,72c-57-23-113,15-129,40s-46,58.3-84,77.15c-63.28,31.4-51.86,125.74,6.08,157.41C136.43,363.71,176.15,366.94,211,370c148,13,194-26,216-54,17.57-22.36,12.49-59.74,6.66-85.24C429.62,213.11,422.36,194,412.62,175.16Z" style="fill: rgb(255, 255, 255); opacity: 0.7; transform-origin: 247.731px 218.733px;" class="animable" id="eljaej2bajgz9"></path></g></g><g id="freepik--Ground--inject-91" class="animable" style="transform-origin: 250.5px 401px;"><ellipse cx="250.5" cy="401" rx="190.5" ry="33" style="fill: #00346F; transform-origin: 250.5px 401px;" id="elrr1pitid5e" class="animable"></ellipse><g id="el4a5xccanucg"><ellipse cx="250.5" cy="401" rx="190.5" ry="33" style="fill: rgb(255, 255, 255); opacity: 0.5; transform-origin: 250.5px 401px;" class="animable" id="elab0txdn54n"></ellipse></g></g><g id="freepik--Plants--inject-91" class="animable" style="transform-origin: 251.409px 312.242px;"><path d="M415.58,281.46s18.83-25.79,9.64-31.85c-9.56-6.3-14.05,12.79-16.07,22.16-4.31,20-3.09,24.26-.2,19.86Z" style="fill: #00346F; transform-origin: 417.042px 270.783px;" id="el7dseaqk64h3" class="animable"></path><path d="M422.67,297.32s26.19-18.28,19.47-27c-7-9.07-17.44,7.53-22.4,15.74-10.58,17.53-10.8,21.94-6.63,18.72Z" style="fill: #00346F; transform-origin: 426.914px 286.719px;" id="el0ymdubf4x05d" class="animable"></path><path d="M423.21,318.52S445.88,308.34,442,300.7c-4-7.94-14.43,3.23-19.41,8.79-10.62,11.86-11.43,15.21-7.78,13.35Z" style="fill: #00346F; transform-origin: 427.645px 310.631px;" id="elfhy58or0fra" class="animable"></path><path d="M424.55,339.81s22.67-10.18,18.8-17.81c-4-7.95-14.43,3.22-19.41,8.78-10.63,11.87-11.44,15.21-7.78,13.35Z" style="fill: #00346F; transform-origin: 428.991px 331.924px;" id="el9m1u9myh24e" class="animable"></path><path d="M398,292.24s-24.9-20-31.37-11.1c-6.74,9.27,12.13,14.63,21.4,17.08,19.79,5.22,24.09,4.2,19.83,1.11Z" style="fill: #00346F; transform-origin: 387.281px 290.374px;" id="el6qj3incpwfp" class="animable"></path><path d="M398.72,308.94s-28.39-14.65-33-4.64c-4.76,10.42,14.79,11.92,24.37,12.48,20.43,1.19,24.44-.67,19.65-2.85Z" style="fill: #00346F; transform-origin: 388.274px 308.976px;" id="el0bx7ws4rxh3" class="animable"></path><path d="M402.15,327.67s-24.34-11.73-28-3.16c-3.78,8.92,12.79,9.74,20.9,10,17.31.53,20.65-1.13,16.55-2.87Z" style="fill: #00346F; transform-origin: 393.388px 327.994px;" id="elsv6tl6reevk" class="animable"></path><path d="M403.31,342.8s-23-14.25-27.48-6.11c-4.71,8.46,11.68,11,19.72,12.15,17.15,2.37,20.65,1.06,16.76-1.1Z" style="fill: #00346F; transform-origin: 394.371px 342.141px;" id="el2m19fd48wd8" class="animable"></path><path d="M401.16,266.9s-4.31-37.46-18.45-33.62c-14.7,4-2.4,22.94,3.82,32.08,13.27,19.5,18.15,21.66,17.1,15.56Z" style="fill: #00346F; transform-origin: 389.773px 258.473px;" id="elmlsbmumtv6k" class="animable"></path><g id="el0hshy15sbvd5"><path d="M415.58,281.46s18.83-25.79,9.64-31.85c-9.56-6.3-14.05,12.79-16.07,22.16-4.31,20-3.09,24.26-.2,19.86Z" style="fill: rgb(255, 255, 255); opacity: 0.5; transform-origin: 417.042px 270.783px;" class="animable" id="elpp0wfey0k3"></path></g><g id="el178zyc72136"><path d="M422.67,297.32s26.19-18.28,19.47-27c-7-9.07-17.44,7.53-22.4,15.74-10.58,17.53-10.8,21.94-6.63,18.72Z" style="fill: rgb(255, 255, 255); opacity: 0.5; transform-origin: 426.914px 286.719px;" class="animable" id="el2re5o52uarb"></path></g><g id="elaadgmykeu2"><path d="M423.21,318.52S445.88,308.34,442,300.7c-4-7.94-14.43,3.23-19.41,8.79-10.62,11.86-11.43,15.21-7.78,13.35Z" style="fill: rgb(255, 255, 255); opacity: 0.5; transform-origin: 427.645px 310.631px;" class="animable" id="elfqorwhz1pd"></path></g><g id="elhrelabrdnx"><path d="M424.55,339.81s22.67-10.18,18.8-17.81c-4-7.95-14.43,3.22-19.41,8.78-10.63,11.87-11.44,15.21-7.78,13.35Z" style="fill: rgb(255, 255, 255); opacity: 0.5; transform-origin: 428.991px 331.924px;" class="animable" id="ellfnmqamwom7"></path></g><g id="elbgytbqo7ou7"><path d="M398,292.24s-24.9-20-31.37-11.1c-6.74,9.27,12.13,14.63,21.4,17.08,19.79,5.22,24.09,4.2,19.83,1.11Z" style="fill: rgb(255, 255, 255); opacity: 0.5; transform-origin: 387.281px 290.374px;" class="animable" id="elzhoq8ntrtic"></path></g><g id="elt05tgg7itdq"><path d="M398.72,308.94s-28.39-14.65-33-4.64c-4.76,10.42,14.79,11.92,24.37,12.48,20.43,1.19,24.44-.67,19.65-2.85Z" style="fill: rgb(255, 255, 255); opacity: 0.5; transform-origin: 388.274px 308.976px;" class="animable" id="ele1kj0g5g22l"></path></g><g id="el2ojx1luaayw"><path d="M402.15,327.67s-24.34-11.73-28-3.16c-3.78,8.92,12.79,9.74,20.9,10,17.31.53,20.65-1.13,16.55-2.87Z" style="fill: rgb(255, 255, 255); opacity: 0.5; transform-origin: 393.388px 327.994px;" class="animable" id="eli7rzsiwkd0c"></path></g><g id="elag5vke9fz6n"><path d="M403.31,342.8s-23-14.25-27.48-6.11c-4.71,8.46,11.68,11,19.72,12.15,17.15,2.37,20.65,1.06,16.76-1.1Z" style="fill: rgb(255, 255, 255); opacity: 0.5; transform-origin: 394.371px 342.141px;" class="animable" id="elili13wisb28"></path></g><g id="ellgrhpzwpflh"><path d="M401.16,266.9s-4.31-37.46-18.45-33.62c-14.7,4-2.4,22.94,3.82,32.08,13.27,19.5,18.15,21.66,17.1,15.56Z" style="fill: rgb(255, 255, 255); opacity: 0.5; transform-origin: 389.773px 258.473px;" class="animable" id="elbg2st8g4jtl"></path></g><path d="M385.59,246.89s21.54,40.38,24.88,59.11c3.85,21.52,4.47,42.73,1.81,61.56" style="fill: none; stroke: rgb(38, 50, 56); stroke-linecap: round; stroke-linejoin: round; stroke-width: 0.75px; transform-origin: 399.746px 307.225px;" id="elf5l51mc0tm4" class="animable"></path><line x1="407.07" y1="293.53" x2="417.62" y2="261.22" style="fill: none; stroke: rgb(38, 50, 56); stroke-linecap: round; stroke-linejoin: round; stroke-width: 0.75px; transform-origin: 412.345px 277.375px;" id="elrm0p89lc449" class="animable"></line><line x1="410.47" y1="306" x2="430.33" y2="281.03" style="fill: none; stroke: rgb(38, 50, 56); stroke-linecap: round; stroke-linejoin: round; stroke-width: 0.75px; transform-origin: 420.4px 293.515px;" id="elrd9zoyjsxv" class="animable"></line><line x1="409.2" y1="301.46" x2="380.45" y2="289.38" style="fill: none; stroke: rgb(38, 50, 56); stroke-linecap: round; stroke-linejoin: round; stroke-width: 0.75px; transform-origin: 394.825px 295.42px;" id="el5b456oqc8en" class="animable"></line><line x1="412.96" y1="322.9" x2="434.58" y2="306.34" style="fill: none; stroke: rgb(38, 50, 56); stroke-linecap: round; stroke-linejoin: round; stroke-width: 0.75px; transform-origin: 423.77px 314.62px;" id="ela6c0f0h93qs" class="animable"></line><line x1="411.81" y1="315.8" x2="389.23" y2="311.1" style="fill: none; stroke: rgb(38, 50, 56); stroke-linecap: round; stroke-linejoin: round; stroke-width: 0.75px; transform-origin: 400.52px 313.45px;" id="elgqwiwgteaoo" class="animable"></line><line x1="412.9" y1="333.09" x2="395.41" y2="330.32" style="fill: none; stroke: rgb(38, 50, 56); stroke-linecap: round; stroke-linejoin: round; stroke-width: 0.75px; transform-origin: 404.155px 331.705px;" id="elyohuip5gh0j" class="animable"></line><line x1="414.37" y1="344.29" x2="426.13" y2="333.75" style="fill: none; stroke: rgb(38, 50, 56); stroke-linecap: round; stroke-linejoin: round; stroke-width: 0.75px; transform-origin: 420.25px 339.02px;" id="elau28bohsx67" class="animable"></line><line x1="414.14" y1="349.03" x2="394.04" y2="343.98" style="fill: none; stroke: rgb(38, 50, 56); stroke-linecap: round; stroke-linejoin: round; stroke-width: 0.75px; transform-origin: 404.09px 346.505px;" id="elebbgtuzcic" class="animable"></line><rect x="397.1" y="364.75" width="29.54" height="5.63" style="fill: rgb(38, 50, 56); transform-origin: 411.87px 367.565px;" id="elkfbgkwzbha" class="animable"></rect><rect x="397.1" y="371.78" width="29.54" height="5.63" style="fill: rgb(38, 50, 56); transform-origin: 411.87px 374.595px;" id="el8g51q6nd1ud" class="animable"></rect><rect x="397.1" y="378.82" width="29.54" height="5.63" style="fill: rgb(38, 50, 56); transform-origin: 411.87px 381.635px;" id="eld8fttcqv13f" class="animable"></rect><rect x="397.1" y="385.85" width="29.54" height="5.63" style="fill: rgb(38, 50, 56); transform-origin: 411.87px 388.665px;" id="elpc4hugl7w8" class="animable"></rect><path d="M87.24,281.46s-18.83-25.79-9.64-31.85c9.56-6.3,14.05,12.79,16.07,22.16,4.31,20,3.09,24.26.2,19.86Z" style="fill: #00346F; transform-origin: 85.7781px 270.783px;" id="elsxzax9brnns" class="animable"></path><path d="M80.15,297.32S54,279,60.68,270.33c7-9.07,17.44,7.53,22.4,15.74,10.58,17.53,10.8,21.94,6.63,18.72Z" style="fill: #00346F; transform-origin: 75.9113px 286.729px;" id="elitfzmwr8m2r" class="animable"></path><path d="M79.61,318.52S56.94,308.34,60.82,300.7c4-7.94,14.43,3.23,19.41,8.79C90.85,321.35,91.66,324.7,88,322.84Z" style="fill: #00346F; transform-origin: 75.1732px 310.631px;" id="elbmg09u4w02" class="animable"></path><path d="M78.27,339.81S55.59,329.63,59.47,322c4-7.95,14.43,3.22,19.41,8.78,10.63,11.87,11.44,15.21,7.78,13.35Z" style="fill: #00346F; transform-origin: 73.8281px 331.924px;" id="elzp37a8j5e1" class="animable"></path><path d="M104.85,292.24s24.9-20,31.37-11.1c6.74,9.27-12.13,14.63-21.4,17.08C95,303.44,90.73,302.42,95,299.33Z" style="fill: #00346F; transform-origin: 115.569px 290.374px;" id="eli2944ovpz3p" class="animable"></path><path d="M104.1,308.94s28.39-14.65,33-4.64c4.76,10.42-14.79,11.92-24.37,12.48C92.26,318,88.25,316.11,93,313.93Z" style="fill: #00346F; transform-origin: 114.517px 308.982px;" id="el6seuq4j489c" class="animable"></path><path d="M100.67,327.67s24.34-11.73,28-3.16c3.78,8.92-12.79,9.74-20.9,10-17.31.53-20.65-1.13-16.55-2.87Z" style="fill: #00346F; transform-origin: 109.432px 327.994px;" id="eljo2a1jskhm" class="animable"></path><path d="M99.51,342.8s23-14.25,27.48-6.11c4.71,8.46-11.68,11-19.72,12.15-17.15,2.37-20.66,1.06-16.76-1.1Z" style="fill: #00346F; transform-origin: 108.447px 342.141px;" id="el9rnymzuqxai" class="animable"></path><path d="M101.66,266.9s4.31-37.46,18.45-33.62c14.7,4,2.4,22.94-3.82,32.08C103,284.86,98.14,287,99.19,280.92Z" style="fill: #00346F; transform-origin: 113.047px 258.468px;" id="eljpmu57ighbb" class="animable"></path><g id="el81qwbi08qck"><path d="M87.24,281.46s-18.83-25.79-9.64-31.85c9.56-6.3,14.05,12.79,16.07,22.16,4.31,20,3.09,24.26.2,19.86Z" style="fill: rgb(255, 255, 255); opacity: 0.5; transform-origin: 85.7781px 270.783px;" class="animable" id="el2t3mjbxes8w"></path></g><g id="el32zjcx2i14e"><path d="M80.15,297.32S54,279,60.68,270.33c7-9.07,17.44,7.53,22.4,15.74,10.58,17.53,10.8,21.94,6.63,18.72Z" style="fill: rgb(255, 255, 255); opacity: 0.5; transform-origin: 75.9113px 286.729px;" class="animable" id="elf76th8clh1h"></path></g><g id="elttks9tnqeql"><path d="M79.61,318.52S56.94,308.34,60.82,300.7c4-7.94,14.43,3.23,19.41,8.79C90.85,321.35,91.66,324.7,88,322.84Z" style="fill: rgb(255, 255, 255); opacity: 0.5; transform-origin: 75.1732px 310.631px;" class="animable" id="eluhtrusuvqqk"></path></g><g id="eljonrxdaes6a"><path d="M78.27,339.81S55.59,329.63,59.47,322c4-7.95,14.43,3.22,19.41,8.78,10.63,11.87,11.44,15.21,7.78,13.35Z" style="fill: rgb(255, 255, 255); opacity: 0.5; transform-origin: 73.8281px 331.924px;" class="animable" id="el4unpf58ww8f"></path></g><g id="el7hdtuliv7wg"><path d="M104.85,292.24s24.9-20,31.37-11.1c6.74,9.27-12.13,14.63-21.4,17.08C95,303.44,90.73,302.42,95,299.33Z" style="fill: rgb(255, 255, 255); opacity: 0.5; transform-origin: 115.569px 290.374px;" class="animable" id="elw83cd5fcwc"></path></g><g id="el6ba853ph5x4"><path d="M104.1,308.94s28.39-14.65,33-4.64c4.76,10.42-14.79,11.92-24.37,12.48C92.26,318,88.25,316.11,93,313.93Z" style="fill: rgb(255, 255, 255); opacity: 0.5; transform-origin: 114.517px 308.982px;" class="animable" id="el9yfefb23ymd"></path></g><g id="elqcawad5si3"><path d="M100.67,327.67s24.34-11.73,28-3.16c3.78,8.92-12.79,9.74-20.9,10-17.31.53-20.65-1.13-16.55-2.87Z" style="fill: rgb(255, 255, 255); opacity: 0.5; transform-origin: 109.432px 327.994px;" class="animable" id="elkcqghzh6r5"></path></g><g id="el4dj2z0xr4xx"><path d="M99.51,342.8s23-14.25,27.48-6.11c4.71,8.46-11.68,11-19.72,12.15-17.15,2.37-20.66,1.06-16.76-1.1Z" style="fill: rgb(255, 255, 255); opacity: 0.5; transform-origin: 108.447px 342.141px;" class="animable" id="elmmoi4uc4jv"></path></g><g id="el7dgbj75jo4s"><path d="M101.66,266.9s4.31-37.46,18.45-33.62c14.7,4,2.4,22.94-3.82,32.08C103,284.86,98.14,287,99.19,280.92Z" style="fill: rgb(255, 255, 255); opacity: 0.5; transform-origin: 113.047px 258.468px;" class="animable" id="el3zzz4elmlp9"></path></g><path d="M117.22,246.89S95.69,287.27,92.35,306c-3.85,21.52-4.47,42.73-1.81,61.56" style="fill: none; stroke: rgb(38, 50, 56); stroke-linecap: round; stroke-linejoin: round; stroke-width: 0.75px; transform-origin: 103.069px 307.225px;" id="el3o249tifc0v" class="animable"></path><line x1="95.75" y1="293.53" x2="85.2" y2="261.22" style="fill: none; stroke: rgb(38, 50, 56); stroke-linecap: round; stroke-linejoin: round; stroke-width: 0.75px; transform-origin: 90.475px 277.375px;" id="ele5v95ask7i" class="animable"></line><line x1="92.35" y1="306" x2="72.49" y2="281.03" style="fill: none; stroke: rgb(38, 50, 56); stroke-linecap: round; stroke-linejoin: round; stroke-width: 0.75px; transform-origin: 82.42px 293.515px;" id="eloxm616muwb" class="animable"></line><line x1="93.61" y1="301.46" x2="122.37" y2="289.38" style="fill: none; stroke: rgb(38, 50, 56); stroke-linecap: round; stroke-linejoin: round; stroke-width: 0.75px; transform-origin: 107.99px 295.42px;" id="eln2c6m9cnvro" class="animable"></line><line x1="89.86" y1="322.9" x2="68.24" y2="306.34" style="fill: none; stroke: rgb(38, 50, 56); stroke-linecap: round; stroke-linejoin: round; stroke-width: 0.75px; transform-origin: 79.05px 314.62px;" id="elw4qy1gk1g68" class="animable"></line><line x1="91.01" y1="315.8" x2="113.59" y2="311.1" style="fill: none; stroke: rgb(38, 50, 56); stroke-linecap: round; stroke-linejoin: round; stroke-width: 0.75px; transform-origin: 102.3px 313.45px;" id="elles41hgmp8" class="animable"></line><line x1="89.92" y1="333.09" x2="107.41" y2="330.32" style="fill: none; stroke: rgb(38, 50, 56); stroke-linecap: round; stroke-linejoin: round; stroke-width: 0.75px; transform-origin: 98.665px 331.705px;" id="el5xfd1er7c0x" class="animable"></line><line x1="88.45" y1="344.29" x2="76.69" y2="333.75" style="fill: none; stroke: rgb(38, 50, 56); stroke-linecap: round; stroke-linejoin: round; stroke-width: 0.75px; transform-origin: 82.57px 339.02px;" id="elf4tor7pw27" class="animable"></line><line x1="88.68" y1="349.03" x2="108.78" y2="343.98" style="fill: none; stroke: rgb(38, 50, 56); stroke-linecap: round; stroke-linejoin: round; stroke-width: 0.75px; transform-origin: 98.73px 346.505px;" id="elzagjm2mhvso" class="animable"></line><g id="elfhwdhvs3mf"><rect x="76.18" y="364.75" width="29.54" height="5.63" style="fill: rgb(38, 50, 56); transform-origin: 90.95px 367.565px; transform: rotate(180deg);" class="animable" id="elm7vf80xywh"></rect></g><g id="elubai0vybwin"><rect x="76.18" y="371.78" width="29.54" height="5.63" style="fill: rgb(38, 50, 56); transform-origin: 90.95px 374.595px; transform: rotate(180deg);" class="animable" id="eltcn9skgd8rf"></rect></g><g id="el3i06s5phsjs"><rect x="76.18" y="378.82" width="29.54" height="5.63" style="fill: rgb(38, 50, 56); transform-origin: 90.95px 381.635px; transform: rotate(180deg);" class="animable" id="eln7pnrliyf6p"></rect></g><g id="elyxplj358l8g"><rect x="76.18" y="385.85" width="29.54" height="5.63" style="fill: rgb(38, 50, 56); transform-origin: 90.95px 388.665px; transform: rotate(180deg);" class="animable" id="el5d93jqj3bpw"></rect></g></g><g id="freepik--Device--inject-91" class="animable" style="transform-origin: 271.63px 267.555px;"><rect x="255.04" y="274.6" width="33.18" height="13.1" style="fill: rgb(38, 50, 56); stroke: rgb(38, 50, 56); stroke-linecap: round; stroke-linejoin: round; transform-origin: 271.63px 281.15px;" id="elx16sog78we" class="animable"></rect><rect x="231.22" y="284.2" width="80.82" height="4.94" style="fill: rgb(38, 50, 56); stroke: rgb(38, 50, 56); stroke-linecap: round; stroke-linejoin: round; transform-origin: 271.63px 286.67px;" id="el9q17x86de5i" class="animable"></rect><rect x="175.47" y="143.76" width="192.31" height="135.76" style="fill: rgb(38, 50, 56); stroke: rgb(38, 50, 56); stroke-linecap: round; stroke-linejoin: round; transform-origin: 271.625px 211.64px;" id="elz0xd008hsds" class="animable"></rect><rect x="181.3" y="149.55" width="180.65" height="124.19" style="fill: rgb(255, 255, 255); stroke: rgb(38, 50, 56); stroke-linecap: round; stroke-linejoin: round; transform-origin: 271.625px 211.645px;" id="elloxz5ogmyaj" class="animable"></rect><g style="clip-path: url(&quot;#freepik--clip-path--inject-91&quot;); transform-origin: 270.97px 226.341px;" id="elvykgx2uxkae" class="animable"><path d="M250.73,218.45s.21,9.29-2.17,15.56-5,7.14-9.51,7.14h-6.49s-6.27-6.49-13.84-6.92-17.08,6.7-17.08,6.7l-22.7-7.35v41.95s28.54-1.51,29.19-1.3,4.54,8.22,4.54,9.95a11.78,11.78,0,0,0,.22,2.6h131s6.27-3-5.84-16.44S314.52,255,311.49,255s-9.3-.87-9.3-.87-16.43-5.83-18.59-7.78-5-21.19-5-24.87v-4.32s-1.08,8.43-10.81,10.16S250.73,218.45,250.73,218.45Z" style="fill: #00346F; stroke: rgb(38, 50, 56); stroke-linecap: round; stroke-linejoin: round; transform-origin: 262.226px 251.97px;" id="el10pecoe38du" class="animable"></path><path d="M208.09,246.14s8.31,10.68,8.31,20.17" style="fill: none; stroke: rgb(38, 50, 56); stroke-linecap: round; stroke-linejoin: round; transform-origin: 212.245px 256.225px;" id="elp85rcnkz2o" class="animable"></path><path d="M217,251.48s2.37,14.83,0,22" style="fill: none; stroke: rgb(38, 50, 56); stroke-linecap: round; stroke-linejoin: round; transform-origin: 217.527px 262.48px;" id="elnq95b5jc3k" class="animable"></path><path d="M243.09,246.74s3,17.2,23.14,17.79" style="fill: none; stroke: rgb(38, 50, 56); stroke-linecap: round; stroke-linejoin: round; transform-origin: 254.66px 255.635px;" id="el24d5fwarh17" class="animable"></path><path d="M232.56,241.15a58.14,58.14,0,0,1,2.82,12.71" style="fill: none; stroke: rgb(38, 50, 56); stroke-linecap: round; stroke-linejoin: round; transform-origin: 233.97px 247.505px;" id="el4gigdb54odo" class="animable"></path><path d="M266.51,260.4c11.64,0,16.85-7.64,19.05-12.89a9.67,9.67,0,0,1-2-1.17c-2.17-2-5-21.19-5-24.87v-4.32s-1.08,8.43-10.81,10.16-17.08-8.86-17.08-8.86.21,9.29-2.17,15.56c-1.48,3.91-3,5.72-5.11,6.53C245.19,245.45,251.69,260.4,266.51,260.4Z" style="fill: rgb(255, 255, 255); stroke: rgb(38, 50, 56); stroke-linecap: round; stroke-linejoin: round; transform-origin: 264.475px 238.775px;" id="el7yi9867q52l" class="animable"></path><path d="M243.38,200.93s-1.3-4.76-3.46-2.81-1.09,6.92.21,9.95,5.41,2.81,5.41,2.81,6.92,23.57,18.38,23.78,15.57-13.4,17.73-17.51,2.16-4.76,2.16-4.76,5.84-3.68,6.92-8.86-4.32-4.55-4.32-4.55a16.66,16.66,0,0,0-1.73-11.46c-3.25-6.05-27.47-7.13-34-4.32s-9.73,5.19-9.95,8.22S243.38,200.93,243.38,200.93Z" style="fill: rgb(255, 255, 255); stroke: rgb(38, 50, 56); stroke-linecap: round; stroke-linejoin: round; transform-origin: 264.779px 208.194px;" id="eljniujixkwlo" class="animable"></path><path d="M264.13,201.8s.87,4.75-.43,6.48-4.11,1.3-3,3.68S265,215.2,265,215.2" style="fill: none; stroke: rgb(38, 50, 56); stroke-linecap: round; stroke-linejoin: round; transform-origin: 262.723px 208.5px;" id="elwzosqy8olor" class="animable"></path><path d="M261.11,220.61s7.78,3,11.89-3.68" style="fill: none; stroke: rgb(38, 50, 56); stroke-linecap: round; stroke-linejoin: round; transform-origin: 267.055px 219.106px;" id="elg6y0bkcgqjh" class="animable"></path><path d="M274.66,203.53c0,1.31-.6,2.37-1.34,2.37s-1.33-1.06-1.33-2.37.59-2.38,1.33-2.38S274.66,202.21,274.66,203.53Z" style="fill: rgb(38, 50, 56); transform-origin: 273.325px 203.525px;" id="el4hf7263mxmb" class="animable"></path><path d="M257,203.53c0,1.31-.6,2.37-1.34,2.37s-1.34-1.06-1.34-2.37.6-2.38,1.34-2.38S257,202.21,257,203.53Z" style="fill: rgb(38, 50, 56); transform-origin: 255.66px 203.525px;" id="el0zcok3qlgrt" class="animable"></path><path d="M271.52,194.6s5.64-1.47,7.35,4.16" style="fill: none; stroke: rgb(38, 50, 56); stroke-linecap: round; stroke-linejoin: round; transform-origin: 275.195px 196.594px;" id="eleh4cmxq1n3r" class="animable"></path><path d="M241.65,198.34s.43,2.37,1.73,2.59a3.58,3.58,0,0,0,2.59-1.08s-4.76,3.68-2.16,4.76,8.65-1.3,12.54-4.33a30.88,30.88,0,0,0,6.27-6.7s-4.76,8-1.3,7.13,9.3-6.27,11.46-9.08,3.9-5.62,3.9-5.62.21,6.27,1.29,7.78,2.6-1.51,2.6-1.51a10.11,10.11,0,0,0,1.94,5c1.73,2.17,2.82,4.11,3.46,3.25s2.81-.87,2.17-4.11,1.73-12.76-10.17-16-29.41-1.73-34,4.76A16,16,0,0,0,241.65,198.34Z" style="fill: #00346F; stroke: rgb(38, 50, 56); stroke-linecap: round; stroke-linejoin: round; transform-origin: 264.692px 191.823px;" id="elnr1x7nttnr" class="animable"></path><path d="M242.29,175.41s1.3-11.24,16-14.92,26.59,8.87,28.11,18.38c0,0-6.92-6.27-22.92-4.75s-21.41,4.75-21.41,4.75Z" style="fill: rgb(38, 50, 56); stroke: rgb(38, 50, 56); stroke-linecap: round; stroke-linejoin: round; transform-origin: 264.235px 169.351px;" id="elxcqidlu1o8" class="animable"></path><path d="M241.65,198.34s-.22-7.79,13.83-11.47,21.63.22,24.87,3,6.06,9.08,6.06,9.08,1.51,0,1.73-2.59,2.16-9.52,2.37-12.76-.21-7.35-13.83-10.81-29-1.08-34.39,2.59-4.1,8.22-3.89,10-.86,6.49.22,9.73S241.65,198.34,241.65,198.34Z" style="fill: rgb(38, 50, 56); stroke: rgb(38, 50, 56); stroke-linecap: round; stroke-linejoin: round; transform-origin: 264.329px 185.029px;" id="elij56jd593c" class="animable"></path><path d="M265.63,175.55a3.62,3.62,0,0,1-7.12,0c0-1.63,1.6-3,3.56-3S265.63,173.92,265.63,175.55Z" style="fill: rgb(255, 255, 255); stroke: rgb(38, 50, 56); stroke-linecap: round; stroke-linejoin: round; transform-origin: 262.07px 175.532px;" id="el9s8b3l7b15b" class="animable"></path><path d="M185.29,235.64l-6.35-2.06v41.95s7.75-.41,15.27-.77c4.92-3,11.4-9.85,7.65-21.72C198.51,242.43,188.12,237,185.29,235.64Z" style="fill: rgb(255, 255, 255); stroke: rgb(38, 50, 56); stroke-linecap: round; stroke-linejoin: round; transform-origin: 190.959px 254.555px;" id="elh6bjkb2i8hb" class="animable"></path><path d="M320.14,247.21a11.08,11.08,0,0,1-8-4.33c-3.46-4.32-4.54-4.76-6.06-2.38s-1.29,6.49,1.09,8.22a35.15,35.15,0,0,0,5.18,3Z" style="fill: rgb(255, 255, 255); stroke: rgb(38, 50, 56); stroke-linecap: round; stroke-linejoin: round; transform-origin: 312.63px 245.392px;" id="el6bjzn07t0zj" class="animable"></path><path d="M353.44,282.88s-7.57-6.05-15.57-18.59-11.68-19-13-19.46-19.25,9.08-20.33,9.73-.65,1.51.22,3.67,5.4,11.46,6.27,13,2.81,2.38,5.62,1.94a4.73,4.73,0,0,0,3.68-2.38l1.51-.86s1.08,3.24,3.68,4.32a7.32,7.32,0,0,0,5.18,0s9.74,18.6,10.6,18.6S363,290.67,363,290.67Z" style="fill: rgb(255, 255, 255); stroke: rgb(38, 50, 56); stroke-linecap: round; stroke-linejoin: round; transform-origin: 333.45px 268.832px;" id="elpevg2n7r4s" class="animable"></path><path d="M310.19,268.83s0-1.73.87-2.38,11-5.41,11-5.41" style="fill: rgb(255, 255, 255); stroke: rgb(38, 50, 56); stroke-linecap: round; stroke-linejoin: round; transform-origin: 316.125px 264.935px;" id="elzm7n4i17bvk" class="animable"></path><line x1="307.38" y1="262.77" x2="321.22" y2="255.21" style="fill: rgb(255, 255, 255); stroke: rgb(38, 50, 56); stroke-linecap: round; stroke-linejoin: round; transform-origin: 314.3px 258.99px;" id="eldlemesyclxf" class="animable"></line><line x1="304.79" y1="258.23" x2="319.49" y2="250.66" style="fill: rgb(255, 255, 255); stroke: rgb(38, 50, 56); stroke-linecap: round; stroke-linejoin: round; transform-origin: 312.14px 254.445px;" id="eln96jz6chwb" class="animable"></line></g><rect x="150.26" y="289.27" width="242.74" height="102.08" style="fill: #00346F; stroke: rgb(38, 50, 56); stroke-linecap: round; stroke-linejoin: round; transform-origin: 271.63px 340.31px;" id="elnt10tspovzc" class="animable"></rect><rect x="153.55" y="295.85" width="57.39" height="89.4" style="fill: rgb(255, 255, 255); stroke: rgb(38, 50, 56); stroke-linecap: round; stroke-linejoin: round; transform-origin: 182.245px 340.55px;" id="elbf8tsuw0uo9" class="animable"></rect><rect x="330.43" y="295.85" width="57.39" height="89.4" style="fill: rgb(255, 255, 255); stroke: rgb(38, 50, 56); stroke-linecap: round; stroke-linejoin: round; transform-origin: 359.125px 340.55px;" id="elsw1tigml40k" class="animable"></rect><rect x="215.65" y="295.85" width="110.23" height="19.17" style="fill: rgb(38, 50, 56); stroke: rgb(38, 50, 56); stroke-linecap: round; stroke-linejoin: round; transform-origin: 270.765px 305.435px;" id="elyy6dzq90jej" class="animable"></rect><rect x="215.65" y="365.95" width="110.23" height="19.17" style="fill: rgb(38, 50, 56); stroke: rgb(38, 50, 56); stroke-linecap: round; stroke-linejoin: round; transform-origin: 270.765px 375.535px;" id="eljvicfapib9d" class="animable"></rect><rect x="215.65" y="324.08" width="50.81" height="32.59" style="fill: rgb(38, 50, 56); stroke: rgb(38, 50, 56); stroke-linecap: round; stroke-linejoin: round; transform-origin: 241.055px 340.375px;" id="el20wxa07krq6" class="animable"></rect><rect x="275.39" y="324.08" width="50.49" height="32.59" style="fill: rgb(38, 50, 56); stroke: rgb(38, 50, 56); stroke-linecap: round; stroke-linejoin: round; transform-origin: 300.635px 340.375px;" id="elgoelmduv3ff" class="animable"></rect><rect x="243.4" y="304.32" width="54.57" height="10.04" style="fill: rgb(255, 255, 255); stroke: rgb(38, 50, 56); stroke-linecap: round; stroke-linejoin: round; transform-origin: 270.685px 309.34px;" id="eltfsiuzz2o8p" class="animable"></rect><path d="M343.6,336.78a4.23,4.23,0,1,1-4.23-4.23A4.23,4.23,0,0,1,343.6,336.78Z" style="fill: rgb(38, 50, 56); stroke: rgb(38, 50, 56); stroke-linecap: round; stroke-linejoin: round; transform-origin: 339.37px 336.78px;" id="el06blrshzs0tc" class="animable"></path><circle cx="202" cy="336.78" r="4.23" style="fill: rgb(38, 50, 56); stroke: rgb(38, 50, 56); stroke-linecap: round; stroke-linejoin: round; transform-origin: 202px 336.78px;" id="elr97b2dof8e" class="animable"></circle></g><g id="freepik--Character--inject-91" class="animable" style="transform-origin: 134.455px 273.257px;"><path d="M140.7,393.29a125.47,125.47,0,0,1,9.36,8.75c2.44,2.85,4.89,4.47,1.22,6.31s-4.68,1.62-10.17-.61-6.31-3.46-10.79-6.31-7.12-3.06-5.9-7.33,3.46-5.09,4.27-5.09S140.7,393.29,140.7,393.29Z" style="fill: rgb(255, 255, 255); stroke: rgb(38, 50, 56); stroke-linecap: round; stroke-linejoin: round; transform-origin: 138.637px 399.299px;" id="elgnoy4ppos1t" class="animable"></path><path d="M151.28,408.35c1.86-.93,2.14-1.81,1.66-2.82-4.6,3.6-9.47,1.93-13.46-1.87-3.48-3.31-11.7-8-14.95-9.92,0,.12-.08.23-.11.36-1.22,4.27,1.42,4.48,5.9,7.33s5.29,4.07,10.79,6.31S147.62,410.18,151.28,408.35Z" style="fill: #00346F; stroke: rgb(38, 50, 56); stroke-linecap: round; stroke-linejoin: round; transform-origin: 138.634px 401.663px;" id="elm1me3dfriwm" class="animable"></path><path d="M116.68,404.28s-11.39,9.56-12.82,13,2.85,3.46,8.75,2.85,9.77-4.48,13.23-5.7,6.31.41,7.53-3.46-5.49-6.51-9-6.51S116.68,404.28,116.68,404.28Z" style="fill: rgb(255, 255, 255); stroke: rgb(38, 50, 56); stroke-linecap: round; stroke-linejoin: round; transform-origin: 118.55px 412.357px;" id="elpcfn06p0nvj" class="animable"></path><path d="M125.84,414.45c3.46-1.22,6.31.41,7.53-3.46a2.94,2.94,0,0,0,0-1.66c-2.54,1.4-5.41,2.69-7.77,2.88-4.88.41-5.7,3.46-14,5.7-4.07,1.09-6.44.49-7.8-.41-1.18,3.25,3,3.25,8.81,2.65S122.38,415.67,125.84,414.45Z" style="fill: #00346F; stroke: rgb(38, 50, 56); stroke-linecap: round; stroke-linejoin: round; transform-origin: 118.545px 414.893px;" id="elfs3ivgz6fck" class="animable"></path><path d="M131.13,295.8s9.57,32.15,10.79,35.41-.2,4.07-2.64,8.35a45,45,0,0,0-4.89,15.87c-.61,5.29-10.38,33.38-10.38,33.38s3,8.34,3.66,7.73,5.7-1.22,8.76-2,4.27-1.22,4.27-1.22.2,1,.2-1.84-1.62-5.49-1.83-6.51,10.79-20.35,17.5-34.8,7.13-23,5.91-39.89a122.5,122.5,0,0,0-6.31-30.53l-26.26,2.85Z" style="fill: rgb(38, 50, 56); stroke: rgb(38, 50, 56); stroke-linecap: round; stroke-linejoin: round; transform-origin: 143.514px 338.161px;" id="el6eyjs6kf3v9" class="animable"></path><path d="M107.93,280.33s1.83,48.85,2.24,56.78,2.24,16.69.82,24.22,2,17.3,3.86,25.85,2.65,11.4,2,12.41-1.63,2.85-1.63,3.87-.41,2.44.41,2.44a67.07,67.07,0,0,1,10.17,3.26c3.46,1.42,7.13,2.44,7.53,1.83s1.84-3.46,1.84-8.75-1.84-10-1.23-15.26,1-20.56.82-28.9-1.5-20.6-1.3-25.08,4.5-35,4.5-35l5.55-13.6Z" style="fill: rgb(38, 50, 56); stroke: rgb(38, 50, 56); stroke-linecap: round; stroke-linejoin: round; transform-origin: 125.72px 345.75px;" id="eljetc8v2i8u" class="animable"></path><path d="M145,337.5s.5,12,5.5,15" style="fill: none; stroke: rgb(255, 255, 255); stroke-linecap: round; stroke-linejoin: round; transform-origin: 147.75px 345px;" id="eljz2gpr0pem" class="animable"></path><path d="M143.5,335.5s-6,32.5-3,40.5" style="fill: none; stroke: rgb(255, 255, 255); stroke-linecap: round; stroke-linejoin: round; transform-origin: 141.58px 355.75px;" id="elhr3laaclg8h" class="animable"></path><path d="M131,336.5s-1,29.5-5.5,36.5-8,8.5-8,8.5" style="fill: none; stroke: rgb(255, 255, 255); stroke-linecap: round; stroke-linejoin: round; transform-origin: 124.25px 359px;" id="ele2xyq98nkit" class="animable"></path><path d="M129,386s-4,5-6.5,8.5,6.5,3.5,10,4.5-12.5,3-12.5,3l11,4" style="fill: none; stroke: rgb(255, 255, 255); stroke-linecap: round; stroke-linejoin: round; transform-origin: 126.5px 396px;" id="elh455pms01m" class="animable"></path><path d="M137,311s7.5-8,11.5-13" style="fill: none; stroke: rgb(255, 255, 255); stroke-linecap: round; stroke-linejoin: round; transform-origin: 142.75px 304.5px;" id="el6duft5q8im9" class="animable"></path><path d="M116,289s-1,7-3.5,11l-2.5,4" style="fill: none; stroke: rgb(255, 255, 255); stroke-linecap: round; stroke-linejoin: round; transform-origin: 113px 296.5px;" id="elz0zdcl8namc" class="animable"></path><path d="M136,166.15s-1.63,9-2.65,10.59-7.32.2-11.6-.82-6.71-3.86-11.8-1.62a10.6,10.6,0,0,0-6.11,6.71s-7.93,3.66-11.39,5.7-4.28,10-3.26,12.62,3.66,4.07,8.75,2.44a72.38,72.38,0,0,0,9.16-3.66,103.64,103.64,0,0,0,0,19.54c1,10.78.61,44.16.61,52.1v12.82s5.49,5.49,20.15,5.09,29.1-5.09,29.1-5.09-.2-18.52-.2-34.8A232.55,232.55,0,0,1,158,221.72l4.07-7.33s6.51,8.34,9.16,13.63,10.17,9,12.21,5.91-2.85-23-6.72-28.09-5.9-7.73-5.9-7.73.82-7.33-5.29-11.6-13-5.09-14-5.7-2-1-2-1.63-.41-8.55-.41-8.55Z" style="fill: #00346F; stroke: rgb(38, 50, 56); stroke-linecap: round; stroke-linejoin: round; transform-origin: 136.351px 226.915px;" id="el98mwqoeb42" class="animable"></path><path d="M115.71,199.88S127,239,139.44,254.45" style="fill: none; stroke: rgb(38, 50, 56); stroke-linecap: round; stroke-linejoin: round; transform-origin: 127.575px 227.165px;" id="elwhdq6wbe5q8" class="animable"></path><path d="M131.71,269.08a23.84,23.84,0,0,0,3,3.76" style="fill: none; stroke: rgb(38, 50, 56); stroke-linecap: round; stroke-linejoin: round; transform-origin: 133.21px 270.96px;" id="el5usftuv4qn" class="animable"></path><path d="M115.12,209.37S119.73,245,129,264.13" style="fill: none; stroke: rgb(38, 50, 56); stroke-linecap: round; stroke-linejoin: round; transform-origin: 122.06px 236.75px;" id="elu5cxx4zp64" class="animable"></path><path d="M108,183.27s7.12,5.93,4.15,13c0,0,2.37-3.56,2.37-10.68" style="fill: none; stroke: rgb(38, 50, 56); stroke-linecap: round; stroke-linejoin: round; transform-origin: 111.26px 189.77px;" id="eliynlcncvgym" class="animable"></path><path d="M121.77,175.92s4.62,4.38,6.4,8.53" style="fill: none; stroke: rgb(38, 50, 56); stroke-linecap: round; stroke-linejoin: round; transform-origin: 124.97px 180.185px;" id="elr5jsfc1bty" class="animable"></path><path d="M132.32,185.64s2.37,11.27,14.83,5.93" style="fill: none; stroke: rgb(38, 50, 56); stroke-linecap: round; stroke-linejoin: round; transform-origin: 139.735px 189.323px;" id="ellcpzmibqt6" class="animable"></path><path d="M140.09,190.37c4.48.75,8.62-6.26,10.52-10.07-.65-.36-1.16-.69-1.16-1.12,0-.61-.41-8.55-.41-8.55l-13-4.48s-1.63,9-2.65,10.59a2.17,2.17,0,0,1-1.72.7C132.5,180.81,135.17,189.55,140.09,190.37Z" style="fill: rgb(255, 255, 255); stroke: rgb(38, 50, 56); stroke-linecap: round; stroke-linejoin: round; transform-origin: 141.14px 178.288px;" id="el0ca9mgf9n868" class="animable"></path><path d="M130,153.11s-.85-3.14-2.27-1.85-.71,4.55.14,6.54,3.56,1.85,3.56,1.85,4.55,15.52,12.1,15.66,10.25-8.82,11.67-11.53a12.41,12.41,0,0,0,1.43-3.13s3.84-2.42,4.55-5.84-2.85-3-2.85-3a10.91,10.91,0,0,0-1.14-7.54c-2.13-4-18.07-4.7-22.35-2.85s-6.4,3.42-6.54,5.41S130,153.11,130,153.11Z" style="fill: rgb(255, 255, 255); stroke: rgb(38, 50, 56); stroke-linecap: round; stroke-linejoin: round; transform-origin: 144.097px 157.879px;" id="elp5bsknomku" class="animable"></path><path d="M143.65,153.68s.57,3.13-.28,4.27-2.71.85-2,2.42a4.82,4.82,0,0,0,2.85,2.13" style="fill: none; stroke: rgb(38, 50, 56); stroke-linecap: round; stroke-linejoin: round; transform-origin: 142.716px 158.09px;" id="el8l14twr4ziw" class="animable"></path><path d="M141.66,166.06s5.12,2,7.83-2.42" style="fill: none; stroke: rgb(38, 50, 56); stroke-linecap: round; stroke-linejoin: round; transform-origin: 145.575px 165.076px;" id="elayc9dc80sua" class="animable"></path><path d="M148.7,149.28s2.94-1.22,4.16,2.94" style="fill: none; stroke: rgb(38, 50, 56); stroke-linecap: round; stroke-linejoin: round; transform-origin: 150.78px 150.667px;" id="elqfk6a4v5txa" class="animable"></path><path d="M150.58,154.81c0,.87-.39,1.57-.88,1.57s-.88-.7-.88-1.57.39-1.56.88-1.56S150.58,154,150.58,154.81Z" style="fill: rgb(38, 50, 56); transform-origin: 149.7px 154.815px;" id="eldtu27r858bs" class="animable"></path><ellipse cx="138.1" cy="154.81" rx="0.88" ry="1.57" style="fill: rgb(38, 50, 56); transform-origin: 138.1px 154.81px;" id="elhq4tn3wc9wq" class="animable"></ellipse><path d="M129.27,136.31s.86-7.4,10.54-9.82,17.51,5.83,18.5,12.1c0,0-4.55-4.13-15.09-3.14s-14.09,3.14-14.09,3.14Z" style="fill: rgb(38, 50, 56); stroke: rgb(38, 50, 56); stroke-linecap: round; stroke-linejoin: round; transform-origin: 143.72px 132.324px;" id="el6pp45tom0k" class="animable"></path><path d="M128.85,151.4s.28,1.56,1.13,1.71a2.36,2.36,0,0,0,1.71-.72s-3.13,2.42-1.42,3.14,5.69-.86,8.26-2.85a20.08,20.08,0,0,0,4.12-4.41s-3.13,5.26-.85,4.69,6.12-4.12,7.55-6,2.56-3.7,2.56-3.7.14,4.13.85,5.13,1.71-1,1.71-1a6.7,6.7,0,0,0,1.28,3.28c1.14,1.42,1.85,2.7,2.28,2.13s1.85-.57,1.42-2.7,1.14-8.4-6.69-10.54-19.36-1.14-22.35,3.13A10.52,10.52,0,0,0,128.85,151.4Z" style="fill: #00346F; stroke: rgb(38, 50, 56); stroke-linecap: round; stroke-linejoin: round; transform-origin: 144.018px 147.089px;" id="elt3ajdr649om" class="animable"></path><path d="M128.85,151.4s-.15-5.13,9.11-7.55,14.23.14,16.37,2,4,6,4,6,1,0,1.14-1.7,1.43-6.27,1.57-8.4-.14-4.84-9.11-7.12-19.08-.71-22.64,1.71-2.7,5.41-2.56,6.55-.57,4.27.14,6.4S128.85,151.4,128.85,151.4Z" style="fill: rgb(38, 50, 56); stroke: rgb(38, 50, 56); stroke-linecap: round; stroke-linejoin: round; transform-origin: 143.8px 142.686px;" id="elwhsjxao1x5" class="animable"></path><path d="M144.24,135.94a1.44,1.44,0,1,1-1.39-1.07A1.26,1.26,0,0,1,144.24,135.94Z" style="fill: rgb(255, 255, 255); transform-origin: 142.848px 136.306px;" id="elyv0pgyyxk2" class="animable"></path><path d="M98,201.77c1.32-.42,2.56-.87,3.69-1.3a16,16,0,0,0,.79-9.69,9.58,9.58,0,0,0-5.11-6.64c-1.82.91-3.63,1.84-4.86,2.57-3.46,2-4.28,10-3.26,12.62S92.87,203.4,98,201.77Z" style="fill: rgb(255, 255, 255); stroke: rgb(38, 50, 56); stroke-linecap: round; stroke-linejoin: round; transform-origin: 95.8667px 193.299px;" id="elv9zbfu3c6x" class="animable"></path><path d="M169.54,183.44a6.44,6.44,0,0,1-3.64-3.85c-1.12-3-1.64-3.46-2.91-2.42s-1.9,3.35-.9,4.74a20.19,20.19,0,0,0,2.32,2.63Z" style="fill: rgb(255, 255, 255); stroke: rgb(38, 50, 56); stroke-linecap: round; stroke-linejoin: round; transform-origin: 165.568px 180.603px;" id="elnenn8xadl1g" class="animable"></path><path d="M186.4,234.23a6.72,6.72,0,0,0,.34-3.94c-1.31-6.18-4-12.43-5.89-18.5-1.6-5.19-3.26-10.39-4.61-15.65-2.14-8.41-3-12.67-3.63-13.15s-12.31,1.52-13,1.68-.63.72-.55,2.08.91,7.33,1.11,8.32,1.12,1.83,2.76,2.11a2.74,2.74,0,0,0,2.46-.65l1-.2a4.54,4.54,0,0,0,1.25,3.06,4.32,4.32,0,0,0,2.87,1c.45,5.83.86,11.67,1.35,17.5.14,1.66.33,14.84,1.64,15.27.19.07,1.28,3,2.85,3.87,2.1,1.22,4.66,2,6.92.74A7.11,7.11,0,0,0,186.4,234.23Z" style="fill: rgb(255, 255, 255); stroke: rgb(38, 50, 56); stroke-linecap: round; stroke-linejoin: round; transform-origin: 172.952px 210.664px;" id="el6y6vyw11lkg" class="animable"></path><path d="M160.09,193.6s.32-1,.92-1.16,7.09-1,7.09-1" style="fill: none; stroke: rgb(38, 50, 56); stroke-linecap: round; stroke-linejoin: round; transform-origin: 164.095px 192.52px;" id="eln97lm4nh6zi" class="animable"></path><line x1="159.64" y1="189.73" x2="168.68" y2="188.07" style="fill: none; stroke: rgb(38, 50, 56); stroke-linecap: round; stroke-linejoin: round; transform-origin: 164.16px 188.9px;" id="elncw8llkrx9" class="animable"></line><line x1="159.03" y1="186.75" x2="168.55" y2="185.24" style="fill: none; stroke: rgb(38, 50, 56); stroke-linecap: round; stroke-linejoin: round; transform-origin: 163.79px 185.995px;" id="el1ksh7wll33k" class="animable"></line><path d="M94.5,197.9s3.66-2.44,4.48-8.75.61-13.23,1.22-17.5,3.46-9.36,3.46-9.36a18.59,18.59,0,0,0,9.36-.21c5.29-1.42,10-2.64,10-2.64l1.22-21s-9.76-1.43-13.83.81-11.2,12.21-13.84,17.1S82.49,179,82.09,186.3s.81,12.42,5.08,14.66,6.92-.21,6.92-.21" style="fill: rgb(255, 255, 255); stroke: rgb(38, 50, 56); stroke-linecap: round; stroke-linejoin: round; transform-origin: 103.129px 169.947px;" id="elp7o972cvknf" class="animable"></path><rect x="109.97" y="141.93" width="31" height="18.11" rx="2.59" style="fill: rgb(38, 50, 56); stroke: rgb(38, 50, 56); stroke-linecap: round; stroke-linejoin: round; transform-origin: 125.47px 150.985px;" id="elbrfmqa5httn" class="animable"></rect><rect x="138.55" y="145.7" width="1.08" height="2.79" style="fill: rgb(255, 255, 255); transform-origin: 139.09px 147.095px;" id="elehe98sde1p8" class="animable"></rect><path d="M124,137.25s4.22-1.69,5.26-.94a19.11,19.11,0,0,1,2.88,3.59,4.24,4.24,0,0,1-2.24,1c-1.42.2-2.85-1.63-2.85-1.63l-3,.2Z" style="fill: rgb(255, 255, 255); stroke: rgb(38, 50, 56); stroke-linecap: round; stroke-linejoin: round; transform-origin: 128.07px 138.517px;" id="el3ygev42v5wn" class="animable"></path><path d="M119.53,137.25s2.24-2,3.46-1,5,5.71,3.72,6.62-4.12,1.92-4.94.3S119.53,137.25,119.53,137.25Z" style="fill: rgb(255, 255, 255); stroke: rgb(38, 50, 56); stroke-linecap: round; stroke-linejoin: round; transform-origin: 123.251px 139.999px;" id="elrqhph23yjaq" class="animable"></path><path d="M114.85,138.27s2.85-2.85,3.67-1.83,4.27,5.29,3.25,6.72-2.44.81-3.25.2a13.45,13.45,0,0,1-2-2.44Z" style="fill: rgb(255, 255, 255); stroke: rgb(38, 50, 56); stroke-linecap: round; stroke-linejoin: round; transform-origin: 118.403px 140.126px;" id="ell1l31lm96ik" class="animable"></path><path d="M110,140.31s2.85-4.07,4.07-2.65,3.46,3.87,2.64,4.89-.81,1.42-2.44.4a5.41,5.41,0,0,0-2.44-1" style="fill: rgb(255, 255, 255); stroke: rgb(38, 50, 56); stroke-linecap: round; stroke-linejoin: round; transform-origin: 113.443px 140.451px;" id="ele5vrjt6a9ke" class="animable"></path><path d="M114.85,161.47s2.85-1,4.28.61,2.24,3.67,3.05,3.67,2.65-.61,2.24-3.46-1.63-2.65-3.87-2.65a14.48,14.48,0,0,0-3.66.41" style="fill: none; stroke: rgb(38, 50, 56); stroke-linecap: round; stroke-linejoin: round; transform-origin: 119.664px 162.693px;" id="elgcuf19yzevs" class="animable"></path></g><defs><clipPath id="freepik--clip-path--inject-91"><rect x="182.59" y="153.89" width="178.08" height="118" style="fill:none"></rect></clipPath></defs><defs>     <filter id="active" height="200%">         <feMorphology in="SourceAlpha" result="DILATED" operator="dilate" radius="2"></feMorphology>                <feFlood flood-color="#32DFEC" flood-opacity="1" result="PINK"></feFlood>        <feComposite in="PINK" in2="DILATED" operator="in" result="OUTLINE"></feComposite>        <feMerge>            <feMergeNode in="OUTLINE"></feMergeNode>            <feMergeNode in="SourceGraphic"></feMergeNode>        </feMerge>    </filter>    <filter id="hover" height="200%">        <feMorphology in="SourceAlpha" result="DILATED" operator="dilate" radius="2"></feMorphology>                <feFlood flood-color="#ff0000" flood-opacity="0.5" result="PINK"></feFlood>        <feComposite in="PINK" in2="DILATED" operator="in" result="OUTLINE"></feComposite>        <feMerge>            <feMergeNode in="OUTLINE"></feMergeNode>            <feMergeNode in="SourceGraphic"></feMergeNode>        </feMerge>            <feColorMatrix type="matrix" values="0   0   0   0   0                0   1   0   0   0                0   0   0   0   0                0   0   0   1   0 "></feColorMatrix>    </filter></defs></svg>